<svg xmlns="http://www.w3.org/2000/svg" width="256" height="256" viewBox="0 0 100 100"><rect width="100" height="100" rx="0" fill="#7973b2"></rect><path d="M19.44 69.32L19.44 69.32Q22.38 69.32 24.31 68.72Q26.23 68.13 27.07 67.57L27.07 67.57L27.07 57.42L18.39 58.33Q14.75 58.68 13.00 59.97Q11.25 61.27 11.25 63.79L11.25 63.79Q11.25 66.45 13.28 67.88Q15.31 69.32 19.44 69.32ZM19.37 39.71L19.37 39.71Q25.46 39.71 29.03 42.44Q32.60 45.17 32.60 51.05L32.60 51.05L32.60 67.64Q32.60 69.18 32.01 69.98Q31.41 70.79 30.22 71.49L30.22 71.49Q28.54 72.47 25.78 73.20Q23.01 73.94 19.44 73.94L19.44 73.94Q12.86 73.94 9.26 71.35Q5.65 68.76 5.65 63.86L5.65 63.86Q5.65 59.24 8.66 56.89Q11.67 54.55 17.13 53.99L17.13 53.99L27.07 53.01L27.07 51.05Q27.07 47.55 24.97 45.94Q22.87 44.33 19.30 44.33L19.30 44.33Q16.36 44.33 13.77 45.17Q11.18 46.01 9.15 47.06L9.15 47.06Q8.59 46.57 8.14 45.94Q7.68 45.31 7.68 44.54L7.68 44.54Q7.68 43.56 8.17 42.93Q8.66 42.30 9.71 41.74L9.71 41.74Q11.60 40.76 14.05 40.23Q16.50 39.71 19.37 39.71ZM48.78 42.86L48.78 72.82Q48.43 72.96 47.73 73.13Q47.03 73.31 46.19 73.31L46.19 73.31Q43.18 73.31 43.18 70.79L43.18 70.79L43.18 40.76Q43.53 40.62 44.26 40.44Q45.00 40.27 45.84 40.27L45.84 40.27Q48.78 40.27 48.78 42.86L48.78 42.86ZM42.34 30.40L42.34 30.40Q42.34 28.93 43.35 27.91Q44.37 26.90 45.98 26.90L45.98 26.90Q47.59 26.90 48.57 27.91Q49.55 28.93 49.55 30.40L49.55 30.40Q49.55 31.87 48.57 32.88Q47.59 33.90 45.98 33.90L45.98 33.90Q44.37 33.90 43.35 32.88Q42.34 31.87 42.34 30.40ZM65.37 38.03L65.37 42.44L79.23 42.44Q79.44 42.79 79.65 43.35Q79.86 43.91 79.86 44.68L79.86 44.68Q79.86 46.99 77.69 46.99L77.69 46.99L65.44 46.99L65.44 72.82Q65.09 72.96 64.39 73.13Q63.69 73.31 62.85 73.31L62.85 73.31Q59.84 73.31 59.84 70.79L59.84 70.79L59.84 37.75Q59.84 31.59 63.16 28.82Q66.49 26.06 72.44 26.06L72.44 26.06Q76.43 26.06 78.70 27.11Q80.98 28.16 80.98 29.70L80.98 29.70Q80.98 31.24 79.79 32.29L79.79 32.29Q78.53 31.59 76.64 31.13Q74.75 30.68 73.00 30.68L73.00 30.68Q68.73 30.68 67.05 32.43Q65.37 34.18 65.37 38.03L65.37 38.03ZM93.58 42.86L93.58 72.82Q93.23 72.96 92.53 73.13Q91.83 73.31 90.99 73.31L90.99 73.31Q87.98 73.31 87.98 70.79L87.98 70.79L87.98 40.76Q88.33 40.62 89.06 40.44Q89.80 40.27 90.64 40.27L90.64 40.27Q93.58 40.27 93.58 42.86L93.58 42.86ZM87.14 30.40L87.14 30.40Q87.14 28.93 88.15 27.91Q89.17 26.90 90.78 26.90L90.78 26.90Q92.39 26.90 93.37 27.91Q94.35 28.93 94.35 30.40L94.35 30.40Q94.35 31.87 93.37 32.88Q92.39 33.90 90.78 33.90L90.78 33.90Q89.17 33.90 88.15 32.88Q87.14 31.87 87.14 30.40Z" fill="#fff"></path></svg>